<svg class="plot-8a1db1a76fdf3 a47238464" fill="currentColor" font-family="system-ui, sans-serif" font-size="10" text-anchor="middle" width="640" height="400" viewBox="0 0 640 400" style="overflow: visible;" xmlns="http://www.w3.org/2000/svg" xmlns:xlink="http://www.w3.org/1999/xlink"><style>
        .plot-8a1db1a76fdf3 {
          display: block;
          background: white;
          height: auto;
          height: intrinsic;
          max-width: 100%;
        }
        .plot-8a1db1a76fdf3 text,
        .plot-8a1db1a76fdf3 tspan {
          white-space: pre;
        }
      </style><g aria-label="y-axis" transform="translate(40,0)" fill="none" text-anchor="end" font-variant="tabular-nums"><g class="tick" opacity="1" transform="translate(0,361.2894736842106)"><line stroke="currentColor" x2="-6"/><line stroke="currentColor" x2="580" stroke-opacity="0.1"/><text fill="currentColor" x="-9" dy="0.32em">25</text></g><g class="tick" opacity="1" transform="translate(0,315.2368421052631)"><line stroke="currentColor" x2="-6"/><line stroke="currentColor" x2="580" stroke-opacity="0.1"/><text fill="currentColor" x="-9" dy="0.32em">30</text></g><g class="tick" opacity="1" transform="translate(0,269.1842105263158)"><line stroke="currentColor" x2="-6"/><line stroke="currentColor" x2="580" stroke-opacity="0.1"/><text fill="currentColor" x="-9" dy="0.32em">35</text></g><g class="tick" opacity="1" transform="translate(0,223.13157894736844)"><line stroke="currentColor" x2="-6"/><line stroke="currentColor" x2="580" stroke-opacity="0.1"/><text fill="currentColor" x="-9" dy="0.32em">40</text></g><g class="tick" opacity="1" transform="translate(0,177.07894736842104)"><line stroke="currentColor" x2="-6"/><line stroke="currentColor" x2="580" stroke-opacity="0.1"/><text fill="currentColor" x="-9" dy="0.32em">45</text></g><g class="tick" opacity="1" transform="translate(0,131.02631578947367)"><line stroke="currentColor" x2="-6"/><line stroke="currentColor" x2="580" stroke-opacity="0.1"/><text fill="currentColor" x="-9" dy="0.32em">50</text></g><g class="tick" opacity="1" transform="translate(0,84.97368421052632)"><line stroke="currentColor" x2="-6"/><line stroke="currentColor" x2="580" stroke-opacity="0.1"/><text fill="currentColor" x="-9" dy="0.32em">55</text></g><g class="tick" opacity="1" transform="translate(0,38.921052631578966)"><line stroke="currentColor" x2="-6"/><line stroke="currentColor" x2="580" stroke-opacity="0.1"/><text fill="currentColor" x="-9" dy="0.32em">60</text></g></g><g aria-label="x-axis" transform="translate(0,370)" fill="none" text-anchor="middle" font-variant="tabular-nums"><g class="tick" opacity="1" transform="translate(136.5625,0)"><line stroke="currentColor" y2="0"/><line stroke="currentColor" y2="-350" stroke-opacity="0.1"/><text fill="currentColor" y="9" dy="0.71em">February</text></g><g class="tick" opacity="1" transform="translate(271.89583333333337,0)"><line stroke="currentColor" y2="0"/><line stroke="currentColor" y2="-350" stroke-opacity="0.1"/><text fill="currentColor" y="9" dy="0.71em">March</text></g><g class="tick" opacity="1" transform="translate(421.7291666666667,0)"><line stroke="currentColor" y2="0"/><line stroke="currentColor" y2="-350" stroke-opacity="0.1"/><text fill="currentColor" y="9" dy="0.71em">April</text></g><g class="tick" opacity="1" transform="translate(566.7291666666667,0)"><line stroke="currentColor" y2="0"/><line stroke="currentColor" y2="-350" stroke-opacity="0.1"/><text fill="currentColor" y="9" dy="0.71em">May</text></g></g><g aria-label="dot" transform="translate(0.5,0.5)"><circle cx="40" cy="176.57894736842104" r="3" fill="#FF3030" __title="45% - 12/01/22 &#10; Peso: 1" class="has-title"/><circle cx="44.833333333333336" cy="176.57894736842104" r="3" fill="#ccc" __title="45% - 13/01/22 &#10; Peso: 1" class="has-title"/><circle cx="49.666666666666664" cy="185.78947368421052" r="4.242640687119286" fill="#FF3030" __title="44% - 14/01/22 &#10; Peso: 2" class="has-title"/><circle cx="54.5" cy="185.78947368421052" r="3" fill="#ccc" __title="44% - 15/01/22 &#10; Peso: 1" class="has-title"/><circle cx="59.33333333333333" cy="185.78947368421052" r="3" fill="#ccc" __title="44% - 16/01/22 &#10; Peso: 1" class="has-title"/><circle cx="64.16666666666667" cy="185.78947368421052" r="3" fill="#ccc" __title="44% - 17/01/22 &#10; Peso: 1" class="has-title"/><circle cx="69" cy="185.78947368421052" r="3" fill="#ccc" __title="44% - 18/01/22 &#10; Peso: 1" class="has-title"/><circle cx="73.83333333333333" cy="185.78947368421052" r="3" fill="#ccc" __title="44% - 19/01/22 &#10; Peso: 1" class="has-title"/><circle cx="78.66666666666667" cy="204.21052631578948" r="3" fill="#FF3030" __title="42% - 20/01/22 &#10; Peso: 1" class="has-title"/><circle cx="83.5" cy="204.21052631578948" r="3" fill="#ccc" __title="42% - 21/01/22 &#10; Peso: 1" class="has-title"/><circle cx="88.33333333333333" cy="204.21052631578948" r="3" fill="#ccc" __title="42% - 22/01/22 &#10; Peso: 1" class="has-title"/><circle cx="93.16666666666666" cy="204.21052631578948" r="3" fill="#ccc" __title="42% - 23/01/22 &#10; Peso: 1" class="has-title"/><circle cx="98" cy="204.21052631578948" r="3" fill="#ccc" __title="42% - 24/01/22 &#10; Peso: 1" class="has-title"/><circle cx="102.83333333333334" cy="204.21052631578948" r="3" fill="#ccc" __title="42% - 25/01/22 &#10; Peso: 1" class="has-title"/><circle cx="107.66666666666666" cy="204.21052631578948" r="3" fill="#ccc" __title="42% - 26/01/22 &#10; Peso: 1" class="has-title"/><circle cx="112.5" cy="185.78947368421052" r="4.242640687119286" fill="#FF3030" __title="44% - 27/01/22 &#10; Peso: 2" class="has-title"/><circle cx="117.33333333333334" cy="185.78947368421052" r="3" fill="#ccc" __title="44% - 28/01/22 &#10; Peso: 1" class="has-title"/><circle cx="122.16666666666666" cy="185.78947368421052" r="3" fill="#ccc" __title="44% - 29/01/22 &#10; Peso: 1" class="has-title"/><circle cx="127" cy="185.78947368421052" r="3" fill="#ccc" __title="44% - 30/01/22 &#10; Peso: 1" class="has-title"/><circle cx="131.83333333333331" cy="185.78947368421052" r="3" fill="#ccc" __title="44% - 31/01/22 &#10; Peso: 1" class="has-title"/><circle cx="136.66666666666666" cy="185.78947368421052" r="3" fill="#ccc" __title="44% - 01/02/22 &#10; Peso: 1" class="has-title"/><circle cx="141.5" cy="213.42105263157893" r="3" fill="#FF3030" __title="41% - 02/02/22 &#10; Peso: 1" class="has-title"/><circle cx="146.33333333333331" cy="213.42105263157893" r="3" fill="#ccc" __title="41% - 03/02/22 &#10; Peso: 1" class="has-title"/><circle cx="151.16666666666669" cy="213.42105263157893" r="3" fill="#ccc" __title="41% - 04/02/22 &#10; Peso: 1" class="has-title"/><circle cx="156" cy="213.42105263157893" r="3" fill="#ccc" __title="41% - 05/02/22 &#10; Peso: 1" class="has-title"/><circle cx="160.83333333333334" cy="213.42105263157893" r="3" fill="#ccc" __title="41% - 06/02/22 &#10; Peso: 1" class="has-title"/><circle cx="165.66666666666669" cy="213.42105263157893" r="3" fill="#ccc" __title="41% - 07/02/22 &#10; Peso: 1" class="has-title"/><circle cx="170.5" cy="213.42105263157893" r="3" fill="#ccc" __title="41% - 08/02/22 &#10; Peso: 1" class="has-title"/><circle cx="175.33333333333331" cy="171.97368421052633" r="6" fill="#FF3030" __title="45.5% - 09/02/22 &#10; Peso: 4" class="has-title"/><circle cx="180.16666666666669" cy="190.39473684210526" r="4.242640687119286" fill="#FF3030" __title="43.5% - 10/02/22 &#10; Peso: 2" class="has-title"/><circle cx="185" cy="190.39473684210526" r="3" fill="#ccc" __title="43.5% - 11/02/22 &#10; Peso: 1" class="has-title"/><circle cx="189.83333333333334" cy="190.39473684210526" r="3" fill="#ccc" __title="43.5% - 12/02/22 &#10; Peso: 1" class="has-title"/><circle cx="194.66666666666669" cy="190.39473684210526" r="3" fill="#ccc" __title="43.5% - 13/02/22 &#10; Peso: 1" class="has-title"/><circle cx="199.5" cy="190.39473684210526" r="3" fill="#ccc" __title="43.5% - 14/02/22 &#10; Peso: 1" class="has-title"/><circle cx="204.33333333333331" cy="190.39473684210526" r="3" fill="#ccc" __title="43.5% - 15/02/22 &#10; Peso: 1" class="has-title"/><circle cx="209.16666666666669" cy="222.63157894736844" r="3" fill="#FF3030" __title="40% - 16/02/22 &#10; Peso: 1" class="has-title"/><circle cx="214" cy="222.63157894736844" r="3" fill="#ccc" __title="40% - 17/02/22 &#10; Peso: 1" class="has-title"/><circle cx="218.83333333333334" cy="277.89473684210526" r="3" fill="#FF3030" __title="34% - 18/02/22 &#10; Peso: 1" class="has-title"/><circle cx="223.66666666666666" cy="277.89473684210526" r="3" fill="#ccc" __title="34% - 19/02/22 &#10; Peso: 1" class="has-title"/><circle cx="228.5" cy="277.89473684210526" r="3" fill="#ccc" __title="34% - 20/02/22 &#10; Peso: 1" class="has-title"/><circle cx="233.33333333333331" cy="277.89473684210526" r="3" fill="#ccc" __title="34% - 21/02/22 &#10; Peso: 1" class="has-title"/><circle cx="238.16666666666669" cy="277.89473684210526" r="3" fill="#ccc" __title="34% - 22/02/22 &#10; Peso: 1" class="has-title"/><circle cx="243" cy="277.89473684210526" r="3" fill="#ccc" __title="34% - 23/02/22 &#10; Peso: 1" class="has-title"/><circle cx="247.83333333333331" cy="277.89473684210526" r="3" fill="#ccc" __title="34% - 24/02/22 &#10; Peso: 1" class="has-title"/><circle cx="252.66666666666666" cy="195" r="3" fill="#FF3030" __title="43% - 25/02/22 &#10; Peso: 1" class="has-title"/><circle cx="257.5" cy="195" r="3" fill="#ccc" __title="43% - 26/02/22 &#10; Peso: 1" class="has-title"/><circle cx="262.33333333333337" cy="195" r="3" fill="#ccc" __title="43% - 27/02/22 &#10; Peso: 1" class="has-title"/><circle cx="267.1666666666667" cy="195" r="3" fill="#ccc" __title="43% - 28/02/22 &#10; Peso: 1" class="has-title"/><circle cx="272" cy="195" r="3" fill="#ccc" __title="43% - 01/03/22 &#10; Peso: 1" class="has-title"/><circle cx="276.8333333333333" cy="222.63157894736844" r="3" fill="#FF3030" __title="40% - 02/03/22 &#10; Peso: 1" class="has-title"/><circle cx="281.6666666666667" cy="222.63157894736844" r="3" fill="#ccc" __title="40% - 03/03/22 &#10; Peso: 1" class="has-title"/><circle cx="286.5" cy="222.63157894736844" r="3" fill="#ccc" __title="40% - 04/03/22 &#10; Peso: 1" class="has-title"/><circle cx="291.33333333333337" cy="222.63157894736844" r="3" fill="#ccc" __title="40% - 05/03/22 &#10; Peso: 1" class="has-title"/><circle cx="296.16666666666663" cy="222.63157894736844" r="3" fill="#ccc" __title="40% - 06/03/22 &#10; Peso: 1" class="has-title"/><circle cx="301" cy="222.63157894736844" r="3" fill="#ccc" __title="40% - 07/03/22 &#10; Peso: 1" class="has-title"/><circle cx="305.8333333333333" cy="222.63157894736844" r="3" fill="#ccc" __title="40% - 08/03/22 &#10; Peso: 1" class="has-title"/><circle cx="310.66666666666663" cy="222.63157894736844" r="3" fill="#ccc" __title="40% - 09/03/22 &#10; Peso: 1" class="has-title"/><circle cx="315.5" cy="222.63157894736844" r="3" fill="#ccc" __title="40% - 10/03/22 &#10; Peso: 1" class="has-title"/><circle cx="320.33333333333337" cy="195" r="3" fill="#FF3030" __title="43% - 11/03/22 &#10; Peso: 1" class="has-title"/><circle cx="325.16666666666663" cy="195" r="3" fill="#ccc" __title="43% - 12/03/22 &#10; Peso: 1" class="has-title"/><circle cx="330" cy="195" r="3" fill="#ccc" __title="43% - 13/03/22 &#10; Peso: 1" class="has-title"/><circle cx="334.8333333333333" cy="195" r="3" fill="#ccc" __title="43% - 14/03/22 &#10; Peso: 1" class="has-title"/><circle cx="339.6666666666667" cy="195" r="3" fill="#ccc" __title="43% - 15/03/22 &#10; Peso: 1" class="has-title"/><circle cx="344.5" cy="183.48684210526315" r="6" fill="#FF3030" __title="44.25% - 16/03/22 &#10; Peso: 4" class="has-title"/><circle cx="349.33333333333337" cy="183.48684210526315" r="3" fill="#ccc" __title="44.25% - 17/03/22 &#10; Peso: 1" class="has-title"/><circle cx="354.16666666666663" cy="183.48684210526315" r="3" fill="#ccc" __title="44.25% - 18/03/22 &#10; Peso: 1" class="has-title"/><circle cx="359" cy="183.48684210526315" r="3" fill="#ccc" __title="44.25% - 19/03/22 &#10; Peso: 1" class="has-title"/><circle cx="363.83333333333337" cy="183.48684210526315" r="3" fill="#ccc" __title="44.25% - 20/03/22 &#10; Peso: 1" class="has-title"/><circle cx="368.66666666666663" cy="195" r="3" fill="#FF3030" __title="43% - 21/03/22 &#10; Peso: 1" class="has-title"/><circle cx="373.5" cy="195" r="3" fill="#ccc" __title="43% - 22/03/22 &#10; Peso: 1" class="has-title"/><circle cx="378.33333333333337" cy="195" r="3" fill="#ccc" __title="43% - 23/03/22 &#10; Peso: 1" class="has-title"/><circle cx="383.16666666666663" cy="192.69736842105263" r="6" fill="#FF3030" __title="43.25% - 24/03/22 &#10; Peso: 4" class="has-title"/><circle cx="388" cy="185.78947368421052" r="3" fill="#FF3030" __title="44% - 25/03/22 &#10; Peso: 1" class="has-title"/><circle cx="392.8333333333333" cy="185.78947368421052" r="3" fill="#ccc" __title="44% - 26/03/22 &#10; Peso: 1" class="has-title"/><circle cx="397.6666666666667" cy="185.78947368421052" r="3" fill="#ccc" __title="44% - 27/03/22 &#10; Peso: 1" class="has-title"/><circle cx="402.5" cy="185.78947368421052" r="3" fill="#ccc" __title="44% - 28/03/22 &#10; Peso: 1" class="has-title"/><circle cx="407.3333333333333" cy="185.78947368421052" r="3" fill="#ccc" __title="44% - 29/03/22 &#10; Peso: 1" class="has-title"/><circle cx="412.1666666666667" cy="162.76315789473685" r="4.242640687119286" fill="#FF3030" __title="46.5% - 30/03/22 &#10; Peso: 2" class="has-title"/><circle cx="417" cy="162.76315789473685" r="3" fill="#ccc" __title="46.5% - 31/03/22 &#10; Peso: 1" class="has-title"/><circle cx="421.83333333333337" cy="162.76315789473685" r="3" fill="#ccc" __title="46.5% - 01/04/22 &#10; Peso: 1" class="has-title"/><circle cx="426.66666666666663" cy="162.76315789473685" r="3" fill="#ccc" __title="46.5% - 02/04/22 &#10; Peso: 1" class="has-title"/><circle cx="431.5" cy="162.76315789473685" r="3" fill="#ccc" __title="46.5% - 03/04/22 &#10; Peso: 1" class="has-title"/><circle cx="436.33333333333337" cy="162.76315789473685" r="3" fill="#ccc" __title="46.5% - 04/04/22 &#10; Peso: 1" class="has-title"/><circle cx="441.16666666666663" cy="162.76315789473685" r="3" fill="#ccc" __title="46.5% - 05/04/22 &#10; Peso: 1" class="has-title"/><circle cx="446" cy="185.78947368421052" r="3" fill="#FF3030" __title="44% - 06/04/22 &#10; Peso: 1" class="has-title"/><circle cx="450.83333333333337" cy="176.57894736842104" r="7.348469228349534" fill="#FF3030" __title="45% - 07/04/22 &#10; Peso: 6" class="has-title"/><circle cx="455.66666666666663" cy="176.57894736842104" r="3" fill="#ccc" __title="45% - 08/04/22 &#10; Peso: 1" class="has-title"/><circle cx="460.5" cy="176.57894736842104" r="3" fill="#ccc" __title="45% - 09/04/22 &#10; Peso: 1" class="has-title"/><circle cx="465.3333333333333" cy="176.57894736842104" r="3" fill="#ccc" __title="45% - 10/04/22 &#10; Peso: 1" class="has-title"/><circle cx="470.1666666666667" cy="277.89473684210526" r="3" fill="#FF3030" __title="34% - 11/04/22 &#10; Peso: 1" class="has-title"/><circle cx="475" cy="277.89473684210526" r="3" fill="#ccc" __title="34% - 12/04/22 &#10; Peso: 1" class="has-title"/><circle cx="479.8333333333333" cy="222.63157894736844" r="4.242640687119286" fill="#FF3030" __title="40% - 13/04/22 &#10; Peso: 2" class="has-title"/><circle cx="484.6666666666667" cy="222.63157894736844" r="3" fill="#ccc" __title="40% - 14/04/22 &#10; Peso: 1" class="has-title"/><circle cx="489.5" cy="222.63157894736844" r="3" fill="#ccc" __title="40% - 15/04/22 &#10; Peso: 1" class="has-title"/><circle cx="494.33333333333337" cy="222.63157894736844" r="3" fill="#ccc" __title="40% - 16/04/22 &#10; Peso: 1" class="has-title"/><circle cx="499.16666666666663" cy="222.63157894736844" r="3" fill="#ccc" __title="40% - 17/04/22 &#10; Peso: 1" class="has-title"/><circle cx="504" cy="222.63157894736844" r="3" fill="#ccc" __title="40% - 18/04/22 &#10; Peso: 1" class="has-title"/><circle cx="508.83333333333337" cy="222.63157894736844" r="3" fill="#ccc" __title="40% - 19/04/22 &#10; Peso: 1" class="has-title"/><circle cx="513.6666666666666" cy="222.63157894736844" r="3" fill="#ccc" __title="40% - 20/04/22 &#10; Peso: 1" class="has-title"/><circle cx="518.5" cy="222.63157894736844" r="3" fill="#ccc" __title="40% - 21/04/22 &#10; Peso: 1" class="has-title"/><circle cx="523.3333333333334" cy="176.57894736842104" r="3" fill="#FF3030" __title="45% - 22/04/22 &#10; Peso: 1" class="has-title"/><circle cx="528.1666666666667" cy="176.57894736842104" r="3" fill="#ccc" __title="45% - 23/04/22 &#10; Peso: 1" class="has-title"/><circle cx="533" cy="176.57894736842104" r="3" fill="#ccc" __title="45% - 24/04/22 &#10; Peso: 1" class="has-title"/><circle cx="537.8333333333333" cy="219.56140350877192" r="5.196152422706632" fill="#FF3030" __title="40.333333333333336% - 25/04/22 &#10; Peso: 3" class="has-title"/><circle cx="542.6666666666667" cy="219.56140350877192" r="3" fill="#ccc" __title="40.333333333333336% - 26/04/22 &#10; Peso: 1" class="has-title"/><circle cx="547.5" cy="219.56140350877192" r="3" fill="#ccc" __title="40.333333333333336% - 27/04/22 &#10; Peso: 1" class="has-title"/><circle cx="552.3333333333333" cy="219.56140350877192" r="3" fill="#ccc" __title="40.333333333333336% - 28/04/22 &#10; Peso: 1" class="has-title"/><circle cx="557.1666666666667" cy="219.56140350877192" r="3" fill="#ccc" __title="40.333333333333336% - 29/04/22 &#10; Peso: 1" class="has-title"/><circle cx="562" cy="219.56140350877192" r="3" fill="#ccc" __title="40.333333333333336% - 30/04/22 &#10; Peso: 1" class="has-title"/><circle cx="566.8333333333333" cy="219.56140350877192" r="3" fill="#ccc" __title="40.333333333333336% - 01/05/22 &#10; Peso: 1" class="has-title"/><circle cx="571.6666666666666" cy="219.56140350877192" r="3" fill="#ccc" __title="40.333333333333336% - 02/05/22 &#10; Peso: 1" class="has-title"/><circle cx="576.5" cy="219.56140350877192" r="3" fill="#ccc" __title="40.333333333333336% - 03/05/22 &#10; Peso: 1" class="has-title"/><circle cx="581.3333333333333" cy="219.56140350877192" r="3" fill="#ccc" __title="40.333333333333336% - 04/05/22 &#10; Peso: 1" class="has-title"/><circle cx="586.1666666666667" cy="219.56140350877192" r="3" fill="#ccc" __title="40.333333333333336% - 05/05/22 &#10; Peso: 1" class="has-title"/><circle cx="591" cy="185.78947368421052" r="3" fill="#FF3030" __title="44% - 06/05/22 &#10; Peso: 1" class="has-title"/><circle cx="595.8333333333334" cy="185.78947368421052" r="3" fill="#ccc" __title="44% - 07/05/22 &#10; Peso: 1" class="has-title"/><circle cx="600.6666666666667" cy="185.78947368421052" r="3" fill="#ccc" __title="44% - 08/05/22 &#10; Peso: 1" class="has-title"/><circle cx="605.5" cy="185.78947368421052" r="3" fill="#ccc" __title="44% - 09/05/22 &#10; Peso: 1" class="has-title"/><circle cx="610.3333333333333" cy="185.78947368421052" r="3" fill="#ccc" __title="44% - 10/05/22 &#10; Peso: 1" class="has-title"/><circle cx="615.1666666666667" cy="147.41228070175438" r="7.348469228349534" fill="#FF3030" __title="48.166666666666664% - 11/05/22 &#10; Peso: 6" class="has-title"/><circle cx="620" cy="222.63157894736844" r="4.242640687119286" fill="#FF3030" __title="40% - 12/05/22 &#10; Peso: 2" class="has-title"/></g><g aria-label="line" fill="none" stroke="currentColor" stroke-width="3" stroke-linejoin="round" stroke-linecap="round" transform="translate(0.5,0.5)"><path d="M189.83333333333334,193.33698830409358L194.66666666666669,193.72076023391816L199.5,194.07894736842104L204.33333333333331,194.21052631578945L209.16666666666669,194.3421052631579L214,195.39473684210526L218.83333333333334,196.44736842105263L223.66666666666666,199.07894736842107L228.5,201.18421052631578L233.33333333333331,203.28947368421052L238.16666666666669,205.39473684210523L243,207.49999999999994L247.83333333333331,209.60526315789477L252.66666666666666,211.71052631578948L257.5,211.44736842105263L262.33333333333337,212.47291021671828L267.1666666666667,212.7438080495356L272,213.0147058823529L276.8333333333333,213.2856037151703L281.6666666666667,214.36919504643961L286.5,215.45278637770895L291.33333333333337,215.72368421052633L296.16666666666663,215.99458204334366L301,216.26547987616104L305.8333333333333,216.5363777089783L310.66666666666663,216.80727554179563L315.5,217.078173374613L320.33333333333337,217.34907120743037L325.16666666666663,222.48302207130732L330,223.70614035087718L334.8333333333333,223.85964912280704L339.6666666666667,224.01315789473682L344.5,224.16666666666666L349.33333333333337,220.2591706539075L354.16666666666663,220.04984051036683L359,218.86363636363637L363.83333333333337,217.67743221690588L368.66666666666663,214.81658692185005L373.5,212.304625199362L378.33333333333337,209.79266347687405L383.16666666666663,207.280701754386L388,203.69883040935673L392.8333333333333,201.14035087719296L397.6666666666667,198.58187134502919L402.5,198.3260233918129L407.3333333333333,198.0701754385965L412.1666666666667,197.81432748538012L417,195.99573257467992L421.83333333333337,195.124466571835L426.66666666666663,193.5064011379801L431.5,191.88833570412518L436.33333333333337,190.27027027027023L441.16666666666663,188.65220483641542L446,187.03413940256047L450.83333333333337,186.03840682788046L455.66666666666663,183.8157894736842L460.5,182.719298245614L465.3333333333333,181.62280701754386L470.1666666666667,181.18421052631578L475,183.15789473684208L479.8333333333333,185.13157894736847L484.6666666666667,186.64626682986537L489.5,187.28886168910645L494.33333333333337,188.55263157894737L499.16666666666663,189.53125L504,190.50986842105263L508.83333333333337,191.48848684210526L513.6666666666666,192.46710526315792L518.5,193.15789473684205L523.3333333333334,193.84868421052633L528.1666666666667,193.38815789473685L533,193.0085348506401L537.8333333333333,192.75960170697013L542.6666666666667,195L547.5,195.86594691857854L552.3333333333333,196.73189383715703L557.1666666666667,197.59784075573555L562,200.0092336103417L566.8333333333333,201.5039242843953L571.6666666666666,202.99861495844885L576.5,204.49330563250246L581.3333333333333,205.987996306556L586.1666666666667,207.4826869806096L591,208.97737765466317L595.8333333333334,208.97737765466317L600.6666666666667,214.1653375863903L605.5,214.44444444444446L610.3333333333333,214.7235513024987L615.1666666666667,215.00265816055287L620,202.67543859649123" style="pointer-events: visiblestroke;"/></g><g class="hover" style="pointer-events: none; text-anchor: middle;"/><style xmlns="http://www.w3.org/1999/xhtml">
      .a47238464 .has-title {
       cursor: pointer; 
       pointer-events: all;
      }
      .a47238464 .has-title:hover {
        stroke:blue;stroke-width:3;
    }
    </style></svg>